<?xml version="1.0" standalone="no"?>
<!DOCTYPE svg PUBLIC "-//W3C//DTD SVG 20010904//EN"
 "http://www.w3.org/TR/2001/REC-SVG-20010904/DTD/svg10.dtd">
<svg version="1.0" xmlns="http://www.w3.org/2000/svg"
 width="26.000000pt" height="23.000000pt" viewBox="0 0 26.000000 23.000000"
 preserveAspectRatio="xMidYMid meet">

<g transform="translate(0.000000,23.000000) scale(0.100000,-0.100000)"
fill="#000000" stroke="none">
<path d="M27 202 c-34 -37 -22 -73 46 -140 l63 -63 62 65 c68 70 77 101 42
136 -21 21 -84 28 -95 10 -4 -7 -12 -7 -25 0 -29 16 -75 12 -93 -8z m93 -7
c12 -14 15 -14 30 0 26 23 67 19 86 -10 21 -33 13 -52 -51 -115 l-56 -55 -54
57 c-58 59 -67 88 -38 120 20 22 66 24 83 3z"/>
</g>
</svg>
